<mxfile host="Electron" modified="2024-01-13T23:39:39.641Z" agent="Mozilla/5.0 (X11; Linux x86_64) AppleWebKit/537.36 (KHTML, like Gecko) draw.io/22.1.16 Chrome/120.0.6099.109 Electron/28.1.0 Safari/537.36" etag="LzbxfUISGp-jGmT9R-HZ" version="22.1.16" type="device">
  <diagram name="Server SOH Monitoring" id="fo18u6Ch1KVScq3Fo-Wy">
    <mxGraphModel dx="1911" dy="1544" grid="1" gridSize="10" guides="1" tooltips="1" connect="1" arrows="1" fold="1" page="1" pageScale="1" pageWidth="800" pageHeight="350" background="#999999" math="0" shadow="0">
      <root>
        <object label="" description="Sequence diagram for Node-RED flows heartbeat and SOH monitoring." rev="1.0" id="0">
          <mxCell />
        </object>
        <object label="Title Block" id="1">
          <mxCell style="locked=1;" parent="0" />
        </object>
        <mxCell id="h7L3MlKvrl_dhOmhB3lf-10" value="Prepared with: draw.io v22.1.16" style="strokeWidth=1;shadow=0;dashed=0;align=center;html=1;shape=mxgraph.mockup.text.textBox;fontColor=#666666;align=left;fontSize=17;spacingLeft=4;spacingTop=-3;whiteSpace=wrap;strokeColor=#333333;mainText=;fillColor=none;fontFamily=Open Sans;movable=1;resizable=1;rotatable=1;deletable=1;editable=1;locked=0;connectable=1;" parent="1" vertex="1">
          <mxGeometry x="220" y="300" width="280" height="30" as="geometry" />
        </mxCell>
        <object label="&lt;div align=&quot;left&quot;&gt;Sheet %pagenumber%/%pagecount%&lt;/div&gt;" placeholders="1" id="h7L3MlKvrl_dhOmhB3lf-12">
          <mxCell style="strokeWidth=1;shadow=0;dashed=0;align=left;html=1;shape=mxgraph.mockup.text.textBox;fontColor=#666666;align=left;fontSize=17;spacingLeft=4;spacingTop=-3;whiteSpace=wrap;strokeColor=#333333;mainText=;fillColor=none;fontFamily=Open Sans;movable=1;resizable=1;rotatable=1;deletable=1;editable=1;locked=0;connectable=1;" parent="1" vertex="1">
            <mxGeometry x="60" y="300" width="160" height="30" as="geometry" />
          </mxCell>
        </object>
        <object label="Date: &lt;font style=&quot;font-size: 17px;&quot;&gt;%date{ddd mmm dd yyyy HH:MM:ss}%&lt;/font&gt;" placeholders="1" id="h7L3MlKvrl_dhOmhB3lf-13">
          <mxCell style="strokeWidth=1;shadow=0;dashed=0;align=center;html=1;shape=mxgraph.mockup.text.textBox;fontColor=#666666;align=left;fontSize=17;spacingLeft=4;spacingTop=-3;whiteSpace=wrap;strokeColor=#333333;mainText=;fillColor=none;fontFamily=Open Sans;movable=1;resizable=1;rotatable=1;deletable=1;editable=1;locked=0;connectable=1;" parent="1" vertex="1">
            <mxGeometry x="500" y="300" width="280" height="30" as="geometry" />
          </mxCell>
        </object>
        <object label="&lt;b&gt;Title: %page%&lt;/b&gt;" placeholders="1" id="h7L3MlKvrl_dhOmhB3lf-14">
          <mxCell style="strokeWidth=1;shadow=0;dashed=0;align=center;html=1;shape=mxgraph.mockup.text.textBox;fontColor=#666666;align=left;fontSize=17;spacingLeft=4;spacingTop=-3;whiteSpace=wrap;strokeColor=#333333;mainText=;fillColor=none;fontFamily=Open Sans;movable=1;resizable=1;rotatable=1;deletable=1;editable=1;locked=0;connectable=1;" parent="1" vertex="1">
            <mxGeometry x="60" y="240" width="720" height="30" as="geometry" />
          </mxCell>
        </object>
        <object label="Filename: %filename%" placeholders="1" id="h7L3MlKvrl_dhOmhB3lf-15">
          <mxCell style="strokeWidth=1;shadow=0;dashed=0;align=center;html=1;shape=mxgraph.mockup.text.textBox;fontColor=#666666;align=left;fontSize=17;spacingLeft=4;spacingTop=-3;whiteSpace=wrap;strokeColor=#333333;mainText=;fillColor=none;fontFamily=Open Sans;movable=1;resizable=1;rotatable=1;deletable=1;editable=1;locked=0;connectable=1;" parent="1" vertex="1">
            <mxGeometry x="60" y="270" width="580" height="30" as="geometry" />
          </mxCell>
        </object>
        <object label="&lt;div align=&quot;left&quot;&gt;%description%&lt;/div&gt;" placeholders="1" id="h7L3MlKvrl_dhOmhB3lf-16">
          <mxCell style="strokeWidth=1;shadow=0;dashed=0;html=1;shape=mxgraph.mockup.text.textBox;fontColor=#666666;align=left;verticalAlign=top;fontSize=12;spacingLeft=4;spacingTop=-3;whiteSpace=wrap;strokeColor=#333333;mainText=;fillColor=none;fontFamily=Open Sans;movable=1;resizable=1;rotatable=1;deletable=1;editable=1;locked=0;connectable=1;" parent="1" vertex="1">
            <mxGeometry x="60" y="200" width="720" height="40" as="geometry" />
          </mxCell>
        </object>
        <object label="&lt;b&gt;Rev: %rev%&lt;br&gt;&lt;/b&gt;" placeholders="1" id="EyKvBmyPNv_MzgSUc5b6-1">
          <mxCell style="strokeWidth=1;shadow=0;dashed=0;align=center;html=1;shape=mxgraph.mockup.text.textBox;fontColor=#666666;align=left;fontSize=17;spacingLeft=4;spacingTop=-3;whiteSpace=wrap;strokeColor=#333333;mainText=;fillColor=none;fontFamily=Open Sans;movable=1;resizable=1;rotatable=1;deletable=1;editable=1;locked=0;connectable=1;" parent="1" vertex="1">
            <mxGeometry x="640" y="270" width="140" height="30" as="geometry" />
          </mxCell>
        </object>
        <object label="Drawing Frame" id="2jkEU8j2_UPUL1MGRyPS-1">
          <mxCell style="locked=1;" parent="0" />
        </object>
        <mxCell id="2jkEU8j2_UPUL1MGRyPS-2" value="" style="rounded=0;whiteSpace=wrap;html=1;fillColor=none;strokeWidth=3;movable=1;resizable=1;rotatable=1;deletable=1;editable=1;locked=0;connectable=1;" parent="2jkEU8j2_UPUL1MGRyPS-1" vertex="1">
          <mxGeometry x="-180" y="-480" width="960" height="810" as="geometry" />
        </mxCell>
        <object label="Document" id="NbdiYjX3MhI7OpqD2NvG-1">
          <mxCell parent="0" />
        </object>
        <mxCell id="Rvx0zqxLb9kapo9zgUuy-38" value="systemctl" style="shape=umlLifeline;perimeter=lifelinePerimeter;whiteSpace=wrap;html=1;container=1;dropTarget=0;collapsible=0;recursiveResize=0;outlineConnect=0;portConstraint=eastwest;newEdgeStyle={&quot;curved&quot;:0,&quot;rounded&quot;:0};fontFamily=Open Sans;fillColor=#F0F0F0;" vertex="1" parent="NbdiYjX3MhI7OpqD2NvG-1">
          <mxGeometry x="270" y="-450" width="100" height="620" as="geometry" />
        </mxCell>
        <mxCell id="Rvx0zqxLb9kapo9zgUuy-39" value="" style="html=1;points=[[0,0,0,0,5],[0,1,0,0,-5],[1,0,0,0,5],[1,1,0,0,-5]];perimeter=orthogonalPerimeter;outlineConnect=0;targetShapes=umlLifeline;portConstraint=eastwest;newEdgeStyle={&quot;curved&quot;:0,&quot;rounded&quot;:0};fontFamily=Open Sans;fillColor=#F0F0F0;" vertex="1" parent="Rvx0zqxLb9kapo9zgUuy-38">
          <mxGeometry x="45" y="520" width="10" height="40" as="geometry" />
        </mxCell>
        <mxCell id="Rvx0zqxLb9kapo9zgUuy-36" value="increment&lt;br&gt;error count" style="html=1;align=left;spacingLeft=2;endArrow=block;rounded=0;edgeStyle=orthogonalEdgeStyle;curved=0;rounded=0;fontFamily=Open Sans;" edge="1" parent="NbdiYjX3MhI7OpqD2NvG-1">
          <mxGeometry x="0.0118" relative="1" as="geometry">
            <mxPoint x="640" y="20" as="sourcePoint" />
            <Array as="points">
              <mxPoint x="670" y="20" />
              <mxPoint x="670" y="50" />
            </Array>
            <mxPoint as="offset" />
            <mxPoint x="645" y="50" as="targetPoint" />
          </mxGeometry>
        </mxCell>
        <mxCell id="Rvx0zqxLb9kapo9zgUuy-35" value="parse&lt;br&gt;sohmark" style="html=1;align=left;spacingLeft=2;endArrow=block;rounded=0;edgeStyle=orthogonalEdgeStyle;curved=0;rounded=0;fontFamily=Open Sans;" edge="1" parent="NbdiYjX3MhI7OpqD2NvG-1">
          <mxGeometry x="0.0118" relative="1" as="geometry">
            <mxPoint x="640" y="-30" as="sourcePoint" />
            <Array as="points">
              <mxPoint x="670" y="-30" />
              <mxPoint x="670" />
            </Array>
            <mxPoint as="offset" />
            <mxPoint x="645" as="targetPoint" />
          </mxGeometry>
        </mxCell>
        <mxCell id="7Aj4RmTkRRsbpIWRG7jr-15" value="readline&lt;br&gt;(timeout 45s)" style="html=1;align=left;spacingLeft=2;endArrow=block;rounded=0;edgeStyle=orthogonalEdgeStyle;curved=0;rounded=0;fontFamily=Open Sans;" parent="NbdiYjX3MhI7OpqD2NvG-1" edge="1" target="Rvx0zqxLb9kapo9zgUuy-25" source="Rvx0zqxLb9kapo9zgUuy-24">
          <mxGeometry relative="1" as="geometry">
            <mxPoint x="645" y="-100" as="sourcePoint" />
            <Array as="points">
              <mxPoint x="675" y="-100" />
              <mxPoint x="675" y="-70" />
            </Array>
            <mxPoint x="650" y="-70" as="targetPoint" />
          </mxGeometry>
        </mxCell>
        <mxCell id="Iwt6Ft-PqrTWGJXxDrMG-19" value="journald" style="shape=umlLifeline;perimeter=lifelinePerimeter;whiteSpace=wrap;html=1;container=1;dropTarget=0;collapsible=0;recursiveResize=0;outlineConnect=0;portConstraint=eastwest;newEdgeStyle={&quot;curved&quot;:0,&quot;rounded&quot;:0};fontFamily=Open Sans;fillColor=#F0F0F0;" parent="NbdiYjX3MhI7OpqD2NvG-1" vertex="1">
          <mxGeometry x="110" y="-450" width="100" height="620" as="geometry" />
        </mxCell>
        <mxCell id="7Aj4RmTkRRsbpIWRG7jr-2" value="" style="html=1;points=[[0,0,0,0,5],[0,1,0,0,-5],[1,0,0,0,5],[1,1,0,0,-5]];perimeter=orthogonalPerimeter;outlineConnect=0;targetShapes=umlLifeline;portConstraint=eastwest;newEdgeStyle={&quot;curved&quot;:0,&quot;rounded&quot;:0};fontFamily=Open Sans;fillColor=#F0F0F0;" parent="Iwt6Ft-PqrTWGJXxDrMG-19" vertex="1">
          <mxGeometry x="45" y="50" width="10" height="560" as="geometry" />
        </mxCell>
        <mxCell id="Iwt6Ft-PqrTWGJXxDrMG-20" value="Node-RED&lt;br&gt;Flows" style="shape=umlLifeline;perimeter=lifelinePerimeter;whiteSpace=wrap;html=1;container=1;dropTarget=0;collapsible=0;recursiveResize=0;outlineConnect=0;portConstraint=eastwest;newEdgeStyle={&quot;curved&quot;:0,&quot;rounded&quot;:0};fontFamily=Open Sans;fillColor=#F0F0F0;" parent="NbdiYjX3MhI7OpqD2NvG-1" vertex="1">
          <mxGeometry x="-50" y="-450" width="100" height="620" as="geometry" />
        </mxCell>
        <mxCell id="7Aj4RmTkRRsbpIWRG7jr-16" value="State of Health" style="html=1;align=left;spacingLeft=2;endArrow=block;rounded=0;edgeStyle=orthogonalEdgeStyle;curved=0;rounded=0;fontFamily=Open Sans;" parent="Iwt6Ft-PqrTWGJXxDrMG-20" edge="1">
          <mxGeometry relative="1" as="geometry">
            <mxPoint x="50" y="80" as="sourcePoint" />
            <Array as="points">
              <mxPoint x="80" y="110" />
            </Array>
            <mxPoint x="55" y="110" as="targetPoint" />
          </mxGeometry>
        </mxCell>
        <mxCell id="7Aj4RmTkRRsbpIWRG7jr-3" value="" style="html=1;points=[[0,0,0,0,5],[0,1,0,0,-5],[1,0,0,0,5],[1,1,0,0,-5]];perimeter=orthogonalPerimeter;outlineConnect=0;targetShapes=umlLifeline;portConstraint=eastwest;newEdgeStyle={&quot;curved&quot;:0,&quot;rounded&quot;:0};fontFamily=Open Sans;fillColor=#F0F0F0;" parent="Iwt6Ft-PqrTWGJXxDrMG-20" vertex="1">
          <mxGeometry x="45" y="70" width="10" height="470" as="geometry" />
        </mxCell>
        <mxCell id="7Aj4RmTkRRsbpIWRG7jr-6" value="" style="html=1;points=[[0,0,0,0,5],[0,1,0,0,-5],[1,0,0,0,5],[1,1,0,0,-5]];perimeter=orthogonalPerimeter;outlineConnect=0;targetShapes=umlLifeline;portConstraint=eastwest;newEdgeStyle={&quot;curved&quot;:0,&quot;rounded&quot;:0};fillColor=#F0F0F0;fontFamily=Open Sans;" parent="Iwt6Ft-PqrTWGJXxDrMG-20" vertex="1">
          <mxGeometry x="50" y="155" width="10" height="95" as="geometry" />
        </mxCell>
        <mxCell id="7Aj4RmTkRRsbpIWRG7jr-7" value="inject(every 30 s)" style="html=1;align=left;spacingLeft=2;endArrow=block;rounded=0;edgeStyle=orthogonalEdgeStyle;curved=0;rounded=0;fontFamily=Open Sans;" parent="Iwt6Ft-PqrTWGJXxDrMG-20" target="7Aj4RmTkRRsbpIWRG7jr-6" edge="1">
          <mxGeometry x="0.0118" relative="1" as="geometry">
            <mxPoint x="55" y="135" as="sourcePoint" />
            <Array as="points">
              <mxPoint x="85" y="135" />
              <mxPoint x="85" y="165" />
            </Array>
            <mxPoint as="offset" />
          </mxGeometry>
        </mxCell>
        <mxCell id="Rvx0zqxLb9kapo9zgUuy-6" value="" style="html=1;points=[[0,0,0,0,5],[0,1,0,0,-5],[1,0,0,0,5],[1,1,0,0,-5]];perimeter=orthogonalPerimeter;outlineConnect=0;targetShapes=umlLifeline;portConstraint=eastwest;newEdgeStyle={&quot;curved&quot;:0,&quot;rounded&quot;:0};fillColor=#F0F0F0;fontFamily=Open Sans;" vertex="1" parent="Iwt6Ft-PqrTWGJXxDrMG-20">
          <mxGeometry x="55" y="200" width="10" height="40" as="geometry" />
        </mxCell>
        <mxCell id="Rvx0zqxLb9kapo9zgUuy-7" value="console.log&lt;br style=&quot;border-color: var(--border-color); text-align: center;&quot;&gt;(&quot;@SOH report@&quot;,&lt;br style=&quot;border-color: var(--border-color); text-align: center;&quot;&gt;&lt;span style=&quot;border-color: var(--border-color); text-align: center;&quot;&gt;timestamp)&lt;/span&gt;" style="html=1;align=left;spacingLeft=2;endArrow=block;rounded=0;edgeStyle=orthogonalEdgeStyle;curved=0;rounded=0;fontFamily=Open Sans;" edge="1" parent="Iwt6Ft-PqrTWGJXxDrMG-20" target="Rvx0zqxLb9kapo9zgUuy-6">
          <mxGeometry x="0.0118" relative="1" as="geometry">
            <mxPoint x="60" y="180" as="sourcePoint" />
            <Array as="points">
              <mxPoint x="90" y="180" />
              <mxPoint x="90" y="210" />
            </Array>
            <mxPoint as="offset" />
          </mxGeometry>
        </mxCell>
        <mxCell id="Iwt6Ft-PqrTWGJXxDrMG-33" value="soh-monitor.sh" style="shape=umlLifeline;perimeter=lifelinePerimeter;whiteSpace=wrap;html=1;container=1;dropTarget=0;collapsible=0;recursiveResize=0;outlineConnect=0;portConstraint=eastwest;newEdgeStyle={&quot;curved&quot;:0,&quot;rounded&quot;:0};fontFamily=Open Sans;fillColor=#F0F0F0;" parent="NbdiYjX3MhI7OpqD2NvG-1" vertex="1">
          <mxGeometry x="590" y="-450" width="100" height="620" as="geometry" />
        </mxCell>
        <mxCell id="Rvx0zqxLb9kapo9zgUuy-24" value="" style="html=1;points=[[0,0,0,0,5],[0,1,0,0,-5],[1,0,0,0,5],[1,1,0,0,-5]];perimeter=orthogonalPerimeter;outlineConnect=0;targetShapes=umlLifeline;portConstraint=eastwest;newEdgeStyle={&quot;curved&quot;:0,&quot;rounded&quot;:0};fontFamily=Open Sans;fillColor=#F0F0F0;" vertex="1" parent="Iwt6Ft-PqrTWGJXxDrMG-33">
          <mxGeometry x="45" y="280" width="10" height="320" as="geometry" />
        </mxCell>
        <mxCell id="X4nFBjzq5EHVSmgv_8_O-9" value="journalctl" style="shape=umlLifeline;perimeter=lifelinePerimeter;whiteSpace=wrap;html=1;container=1;dropTarget=0;collapsible=0;recursiveResize=0;outlineConnect=0;portConstraint=eastwest;newEdgeStyle={&quot;curved&quot;:0,&quot;rounded&quot;:0};fontFamily=Open Sans;fillColor=#F0F0F0;" parent="NbdiYjX3MhI7OpqD2NvG-1" vertex="1">
          <mxGeometry x="430" y="-450" width="100" height="620" as="geometry" />
        </mxCell>
        <mxCell id="Rvx0zqxLb9kapo9zgUuy-28" value="" style="html=1;points=[[0,0,0,0,5],[0,1,0,0,-5],[1,0,0,0,5],[1,1,0,0,-5]];perimeter=orthogonalPerimeter;outlineConnect=0;targetShapes=umlLifeline;portConstraint=eastwest;newEdgeStyle={&quot;curved&quot;:0,&quot;rounded&quot;:0};fontFamily=Open Sans;fillColor=#F0F0F0;" vertex="1" parent="X4nFBjzq5EHVSmgv_8_O-9">
          <mxGeometry x="45" y="290" width="10" height="30" as="geometry" />
        </mxCell>
        <mxCell id="7Aj4RmTkRRsbpIWRG7jr-11" value="loop" style="shape=umlFrame;whiteSpace=wrap;html=1;pointerEvents=0;fillColor=#E6E6E6;width=50;height=20;fontFamily=Open Sans;dashed=1;align=left;dashPattern=12 12;" parent="NbdiYjX3MhI7OpqD2NvG-1" vertex="1">
          <mxGeometry x="-70" y="-390" width="280" height="210" as="geometry" />
        </mxCell>
        <mxCell id="Rvx0zqxLb9kapo9zgUuy-1" value="printf()" style="html=1;verticalAlign=bottom;endArrow=open;endSize=8;curved=0;rounded=0;fontFamily=Open Sans;endFill=0;fontSize=11;exitX=1;exitY=1;exitDx=0;exitDy=-5;exitPerimeter=0;" edge="1" parent="NbdiYjX3MhI7OpqD2NvG-1" source="Rvx0zqxLb9kapo9zgUuy-6" target="7Aj4RmTkRRsbpIWRG7jr-2">
          <mxGeometry x="-0.0714" width="80" relative="1" as="geometry">
            <mxPoint x="245" y="-120" as="sourcePoint" />
            <mxPoint x="95" y="-120" as="targetPoint" />
            <mxPoint as="offset" />
          </mxGeometry>
        </mxCell>
        <mxCell id="Rvx0zqxLb9kapo9zgUuy-9" value="loop" style="shape=umlFrame;whiteSpace=wrap;html=1;pointerEvents=0;fillColor=#E6E6E6;width=50;height=20;fontFamily=Open Sans;dashed=1;align=left;dashPattern=12 12;" vertex="1" parent="NbdiYjX3MhI7OpqD2NvG-1">
          <mxGeometry x="-150" y="-120" width="900" height="270" as="geometry" />
        </mxCell>
        <mxCell id="Rvx0zqxLb9kapo9zgUuy-25" value="" style="html=1;points=[[0,0,0,0,5],[0,1,0,0,-5],[1,0,0,0,5],[1,1,0,0,-5]];perimeter=orthogonalPerimeter;outlineConnect=0;targetShapes=umlLifeline;portConstraint=eastwest;newEdgeStyle={&quot;curved&quot;:0,&quot;rounded&quot;:0};fillColor=#F0F0F0;fontFamily=Open Sans;" vertex="1" parent="NbdiYjX3MhI7OpqD2NvG-1">
          <mxGeometry x="640" y="-80" width="10" height="30" as="geometry" />
        </mxCell>
        <mxCell id="Rvx0zqxLb9kapo9zgUuy-29" value="exec()" style="html=1;verticalAlign=bottom;endArrow=open;endSize=8;curved=0;rounded=0;fontFamily=Open Sans;endFill=0;fontSize=11;entryX=1;entryY=0;entryDx=0;entryDy=5;entryPerimeter=0;" edge="1" parent="NbdiYjX3MhI7OpqD2NvG-1" source="Rvx0zqxLb9kapo9zgUuy-24" target="Rvx0zqxLb9kapo9zgUuy-28">
          <mxGeometry x="-0.0714" width="80" relative="1" as="geometry">
            <mxPoint x="100" y="-210" as="sourcePoint" />
            <mxPoint x="240" y="-210" as="targetPoint" />
            <mxPoint as="offset" />
          </mxGeometry>
        </mxCell>
        <mxCell id="Rvx0zqxLb9kapo9zgUuy-30" value="follow()" style="html=1;verticalAlign=bottom;endArrow=open;endSize=8;curved=0;rounded=0;fontFamily=Open Sans;endFill=0;fontSize=11;exitX=0;exitY=1;exitDx=0;exitDy=-5;exitPerimeter=0;" edge="1" parent="NbdiYjX3MhI7OpqD2NvG-1" source="Rvx0zqxLb9kapo9zgUuy-28" target="7Aj4RmTkRRsbpIWRG7jr-2">
          <mxGeometry x="-0.5806" width="80" relative="1" as="geometry">
            <mxPoint x="395" y="-140" as="sourcePoint" />
            <mxPoint x="245" y="-140" as="targetPoint" />
            <mxPoint as="offset" />
          </mxGeometry>
        </mxCell>
        <mxCell id="Rvx0zqxLb9kapo9zgUuy-31" value="write()" style="html=1;verticalAlign=bottom;endArrow=open;endSize=8;curved=0;rounded=0;fontFamily=Open Sans;endFill=0;fontSize=11;exitX=1;exitY=1;exitDx=0;exitDy=-5;exitPerimeter=0;entryX=0;entryY=1;entryDx=0;entryDy=-5;entryPerimeter=0;" edge="1" parent="NbdiYjX3MhI7OpqD2NvG-1" source="Rvx0zqxLb9kapo9zgUuy-33" target="Rvx0zqxLb9kapo9zgUuy-25">
          <mxGeometry x="-0.0323" width="80" relative="1" as="geometry">
            <mxPoint x="405" y="-51" as="sourcePoint" />
            <mxPoint x="560" y="-55" as="targetPoint" />
            <mxPoint as="offset" />
          </mxGeometry>
        </mxCell>
        <mxCell id="Rvx0zqxLb9kapo9zgUuy-32" value="write()" style="html=1;verticalAlign=bottom;endArrow=open;endSize=8;curved=0;rounded=0;fontFamily=Open Sans;endFill=0;fontSize=11;entryX=0;entryY=0;entryDx=0;entryDy=5;entryPerimeter=0;" edge="1" parent="NbdiYjX3MhI7OpqD2NvG-1" source="7Aj4RmTkRRsbpIWRG7jr-2" target="Rvx0zqxLb9kapo9zgUuy-33">
          <mxGeometry x="-0.4348" width="80" relative="1" as="geometry">
            <mxPoint x="245" y="-62" as="sourcePoint" />
            <mxPoint x="395" y="-62" as="targetPoint" />
            <mxPoint as="offset" />
          </mxGeometry>
        </mxCell>
        <mxCell id="Rvx0zqxLb9kapo9zgUuy-33" value="" style="html=1;points=[[0,0,0,0,5],[0,1,0,0,-5],[1,0,0,0,5],[1,1,0,0,-5]];perimeter=orthogonalPerimeter;outlineConnect=0;targetShapes=umlLifeline;portConstraint=eastwest;newEdgeStyle={&quot;curved&quot;:0,&quot;rounded&quot;:0};fontFamily=Open Sans;fillColor=#F0F0F0;" vertex="1" parent="NbdiYjX3MhI7OpqD2NvG-1">
          <mxGeometry x="475" y="-70" width="10" height="20" as="geometry" />
        </mxCell>
        <mxCell id="Rvx0zqxLb9kapo9zgUuy-34" value="cond (timeout or sohmark not found)" style="shape=umlFrame;whiteSpace=wrap;html=1;pointerEvents=0;fillColor=#E6E6E6;width=130;height=25;fontFamily=Open Sans;dashed=1;align=left;dashPattern=8 8;" vertex="1" parent="NbdiYjX3MhI7OpqD2NvG-1">
          <mxGeometry x="-140" y="10" width="880" height="120" as="geometry" />
        </mxCell>
        <mxCell id="Rvx0zqxLb9kapo9zgUuy-37" value="cond (error count &amp;gt; action threshold)" style="shape=umlFrame;whiteSpace=wrap;html=1;pointerEvents=0;fillColor=#E6E6E6;width=120;height=25;fontFamily=Open Sans;dashed=1;align=left;" vertex="1" parent="NbdiYjX3MhI7OpqD2NvG-1">
          <mxGeometry x="-130" y="60" width="820" height="60" as="geometry" />
        </mxCell>
        <mxCell id="Rvx0zqxLb9kapo9zgUuy-40" value="exec(restart, node-red.service)" style="html=1;verticalAlign=bottom;endArrow=block;endSize=8;curved=0;rounded=0;fontFamily=Open Sans;endFill=1;fontSize=11;entryX=1;entryY=0;entryDx=0;entryDy=5;entryPerimeter=0;" edge="1" parent="NbdiYjX3MhI7OpqD2NvG-1" source="Rvx0zqxLb9kapo9zgUuy-24" target="Rvx0zqxLb9kapo9zgUuy-39">
          <mxGeometry x="-0.4516" width="80" relative="1" as="geometry">
            <mxPoint x="175" y="-55" as="sourcePoint" />
            <mxPoint x="405" y="-55" as="targetPoint" />
            <mxPoint as="offset" />
          </mxGeometry>
        </mxCell>
        <mxCell id="Rvx0zqxLb9kapo9zgUuy-41" value="kill()" style="html=1;verticalAlign=bottom;endArrow=open;endSize=8;curved=0;rounded=0;fontFamily=Open Sans;endFill=0;fontSize=11;entryX=1;entryY=1;entryDx=0;entryDy=-5;entryPerimeter=0;" edge="1" parent="NbdiYjX3MhI7OpqD2NvG-1" source="Rvx0zqxLb9kapo9zgUuy-39" target="7Aj4RmTkRRsbpIWRG7jr-3">
          <mxGeometry x="-0.5806" width="80" relative="1" as="geometry">
            <mxPoint x="175" y="-55" as="sourcePoint" />
            <mxPoint x="405" y="-55" as="targetPoint" />
            <mxPoint as="offset" />
          </mxGeometry>
        </mxCell>
        <mxCell id="Rvx0zqxLb9kapo9zgUuy-42" value="" style="html=1;points=[[0,0,0,0,5],[0,1,0,0,-5],[1,0,0,0,5],[1,1,0,0,-5]];perimeter=orthogonalPerimeter;outlineConnect=0;targetShapes=umlLifeline;portConstraint=eastwest;newEdgeStyle={&quot;curved&quot;:0,&quot;rounded&quot;:0};fontFamily=Open Sans;fillColor=#F0F0F0;" vertex="1" parent="NbdiYjX3MhI7OpqD2NvG-1">
          <mxGeometry x="-5" y="100" width="10" height="40" as="geometry" />
        </mxCell>
        <mxCell id="Rvx0zqxLb9kapo9zgUuy-43" value="exec()" style="html=1;verticalAlign=bottom;endArrow=open;endSize=8;curved=0;rounded=0;fontFamily=Open Sans;endFill=0;fontSize=11;entryX=1;entryY=0;entryDx=0;entryDy=5;entryPerimeter=0;exitX=0;exitY=1;exitDx=0;exitDy=-5;exitPerimeter=0;" edge="1" parent="NbdiYjX3MhI7OpqD2NvG-1" source="Rvx0zqxLb9kapo9zgUuy-39" target="Rvx0zqxLb9kapo9zgUuy-42">
          <mxGeometry x="-0.5806" width="80" relative="1" as="geometry">
            <mxPoint x="325" y="95" as="sourcePoint" />
            <mxPoint x="15" y="95" as="targetPoint" />
            <mxPoint as="offset" />
          </mxGeometry>
        </mxCell>
      </root>
    </mxGraphModel>
  </diagram>
</mxfile>
